<svg xmlns="http://www.w3.org/2000/svg" width="240.62" height="35" viewBox="0 0 240.62 35"><rect class="svg__rect" x="0" y="0" width="96.06" height="35" fill="#31C4F3"/><rect class="svg__rect" x="94.06" y="0" width="146.56" height="35" fill="#389AD5"/><path class="svg__text" d="M15.70 22L14.22 22L14.22 13.47L19.64 13.47L19.64 14.66L15.70 14.66L15.70 17.20L19.13 17.20L19.13 18.38L15.70 18.38L15.70 22ZM23.53 18.00L23.53 18.00L23.53 17.52Q23.53 16.28 23.97 15.32Q24.41 14.37 25.22 13.86Q26.02 13.35 27.07 13.35Q28.11 13.35 28.92 13.85Q29.72 14.35 30.16 15.29Q30.60 16.23 30.61 17.48L30.61 17.48L30.61 17.96Q30.61 19.21 30.17 20.16Q29.74 21.10 28.93 21.61Q28.13 22.12 27.08 22.12L27.08 22.12Q26.04 22.12 25.23 21.61Q24.42 21.10 23.98 20.17Q23.53 19.23 23.53 18.00ZM25.01 17.46L25.01 17.96Q25.01 19.36 25.56 20.13Q26.11 20.90 27.08 20.90L27.08 20.90Q28.06 20.90 28.59 20.15Q29.12 19.40 29.12 17.96L29.12 17.96L29.12 17.51Q29.12 16.09 28.59 15.34Q28.05 14.58 27.07 14.58L27.07 14.58Q26.11 14.58 25.56 15.33Q25.02 16.09 25.01 17.46L25.01 17.46ZM36.55 22L35.07 22L35.07 13.47L38.07 13.47Q39.55 13.47 40.35 14.13Q41.15 14.79 41.15 16.05L41.15 16.05Q41.15 16.90 40.74 17.48Q40.33 18.06 39.59 18.37L39.59 18.37L41.50 21.92L41.50 22L39.92 22L38.21 18.71L36.55 18.71L36.55 22ZM36.55 14.66L36.55 17.52L38.08 17.52Q38.83 17.52 39.25 17.15Q39.67 16.77 39.67 16.11L39.67 16.11Q39.67 15.43 39.28 15.05Q38.89 14.68 38.12 14.66L38.12 14.66L36.55 14.66ZM51.13 22L45.55 22L45.55 13.47L51.08 13.47L51.08 14.66L47.03 14.66L47.03 17.02L50.53 17.02L50.53 18.19L47.03 18.19L47.03 20.82L51.13 20.82L51.13 22ZM57.62 22L54.56 13.47L56.18 13.47L58.33 20.14L60.49 13.47L62.12 13.47L59.05 22L57.62 22ZM71.65 22L66.07 22L66.07 13.47L71.61 13.47L71.61 14.66L67.56 14.66L67.56 17.02L71.06 17.02L71.06 18.19L67.56 18.19L67.56 20.82L71.65 20.82L71.65 22ZM77.33 22L75.85 22L75.85 13.47L78.85 13.47Q80.32 13.47 81.13 14.13Q81.93 14.79 81.93 16.05L81.93 16.05Q81.93 16.90 81.52 17.48Q81.10 18.06 80.36 18.37L80.36 18.37L82.28 21.92L82.28 22L80.69 22L78.98 18.71L77.33 18.71L77.33 22ZM77.33 14.66L77.33 17.52L78.85 17.52Q79.60 17.52 80.02 17.15Q80.45 16.77 80.45 16.11L80.45 16.11Q80.45 15.43 80.06 15.05Q79.67 14.68 78.89 14.66L78.89 14.66L77.33 14.66Z" fill="#FFFFFF"/><path class="svg__text" d="M110.63 22L108.25 22L108.25 13.60L110.63 13.60L110.63 22ZM118.13 22L115.80 22L115.80 13.60L117.76 13.60L121.47 18.07L121.47 13.60L123.79 13.60L123.79 22L121.84 22L118.13 17.52L118.13 22ZM138.31 22L135.93 22L135.93 13.60L139.77 13.60Q140.91 13.60 141.75 13.98Q142.59 14.35 143.05 15.06Q143.50 15.76 143.50 16.71L143.50 16.71Q143.50 17.66 143.05 18.35Q142.59 19.05 141.75 19.42Q140.91 19.80 139.77 19.80L139.77 19.80L138.31 19.80L138.31 22ZM138.31 15.47L138.31 17.93L139.62 17.93Q140.36 17.93 140.73 17.61Q141.10 17.29 141.10 16.71L141.10 16.71Q141.10 16.12 140.73 15.80Q140.36 15.47 139.62 15.47L139.62 15.47L138.31 15.47ZM150.63 22L148.26 22L148.26 13.60L152.10 13.60Q153.24 13.60 154.08 13.98Q154.92 14.35 155.37 15.06Q155.83 15.76 155.83 16.71L155.83 16.71Q155.83 17.62 155.40 18.30Q154.98 18.98 154.19 19.36L154.19 19.36L156.00 22L153.45 22L151.93 19.77L150.63 19.77L150.63 22ZM150.63 15.47L150.63 17.93L151.95 17.93Q152.69 17.93 153.06 17.61Q153.43 17.29 153.43 16.71L153.43 16.71Q153.43 16.12 153.06 15.79Q152.69 15.47 151.95 15.47L151.95 15.47L150.63 15.47ZM160.19 17.80L160.19 17.80Q160.19 16.55 160.79 15.55Q161.40 14.56 162.46 14.00Q163.53 13.43 164.86 13.43L164.86 13.43Q166.19 13.43 167.25 14.00Q168.31 14.56 168.92 15.55Q169.53 16.55 169.53 17.80L169.53 17.80Q169.53 19.05 168.92 20.04Q168.31 21.04 167.25 21.60Q166.19 22.17 164.86 22.17L164.86 22.17Q163.53 22.17 162.46 21.60Q161.40 21.04 160.79 20.04Q160.19 19.05 160.19 17.80ZM162.59 17.80L162.59 17.80Q162.59 18.51 162.89 19.05Q163.19 19.60 163.71 19.90Q164.22 20.20 164.86 20.20L164.86 20.20Q165.49 20.20 166.01 19.90Q166.53 19.60 166.82 19.05Q167.12 18.51 167.12 17.80L167.12 17.80Q167.12 17.09 166.82 16.54Q166.53 16 166.01 15.70Q165.49 15.40 164.86 15.40L164.86 15.40Q164.22 15.40 163.70 15.70Q163.19 16 162.89 16.54Q162.59 17.09 162.59 17.80ZM173.83 17.80L173.83 17.80Q173.83 16.54 174.42 15.54Q175.02 14.55 176.09 13.99Q177.16 13.43 178.50 13.43L178.50 13.43Q179.68 13.43 180.62 13.83Q181.55 14.22 182.18 14.97L182.18 14.97L180.66 16.33Q179.82 15.40 178.64 15.40L178.64 15.40Q178.63 15.40 178.62 15.40L178.62 15.40Q177.55 15.40 176.88 16.06Q176.22 16.71 176.22 17.80L176.22 17.80Q176.22 18.50 176.52 19.04Q176.83 19.59 177.37 19.89Q177.90 20.20 178.60 20.20L178.60 20.20Q179.29 20.20 179.88 19.93L179.88 19.93L179.88 17.62L181.98 17.62L181.98 21.10Q181.26 21.61 180.33 21.89Q179.39 22.17 178.45 22.17L178.45 22.17Q177.14 22.17 176.08 21.61Q175.02 21.05 174.42 20.05Q173.83 19.06 173.83 17.80ZM189.35 22L186.97 22L186.97 13.60L190.82 13.60Q191.96 13.60 192.80 13.98Q193.64 14.35 194.09 15.06Q194.55 15.76 194.55 16.71L194.55 16.71Q194.55 17.62 194.12 18.30Q193.70 18.98 192.90 19.36L192.90 19.36L194.71 22L192.17 22L190.65 19.77L189.35 19.77L189.35 22ZM189.35 15.47L189.35 17.93L190.67 17.93Q191.40 17.93 191.78 17.61Q192.15 17.29 192.15 16.71L192.15 16.71Q192.15 16.12 191.78 15.79Q191.40 15.47 190.67 15.47L190.67 15.47L189.35 15.47ZM206.08 22L199.34 22L199.34 13.60L205.93 13.60L205.93 15.44L201.69 15.44L201.69 16.85L205.43 16.85L205.43 18.63L201.69 18.63L201.69 20.17L206.08 20.17L206.08 22ZM210.30 21.24L210.30 21.24L211.08 19.49Q211.64 19.86 212.39 20.09Q213.13 20.32 213.85 20.32L213.85 20.32Q215.22 20.32 215.22 19.64L215.22 19.64Q215.22 19.28 214.83 19.11Q214.44 18.93 213.58 18.74L213.58 18.74Q212.63 18.53 211.99 18.30Q211.36 18.06 210.90 17.55Q210.45 17.03 210.45 16.16L210.45 16.16Q210.45 15.39 210.87 14.77Q211.28 14.15 212.12 13.79Q212.95 13.43 214.16 13.43L214.16 13.43Q214.99 13.43 215.79 13.62Q216.60 13.80 217.21 14.17L217.21 14.17L216.48 15.93Q215.28 15.28 214.15 15.28L214.15 15.28Q213.44 15.28 213.12 15.49Q212.80 15.70 212.80 16.04L212.80 16.04Q212.80 16.37 213.18 16.54Q213.56 16.71 214.41 16.89L214.41 16.89Q215.37 17.10 216.00 17.33Q216.63 17.56 217.10 18.07Q217.56 18.58 217.56 19.46L217.56 19.46Q217.56 20.21 217.14 20.83Q216.72 21.44 215.88 21.80Q215.04 22.17 213.84 22.17L213.84 22.17Q212.82 22.17 211.86 21.92Q210.90 21.67 210.30 21.24ZM221.55 21.24L221.55 21.24L222.33 19.49Q222.89 19.86 223.64 20.09Q224.38 20.32 225.10 20.32L225.10 20.32Q226.47 20.32 226.47 19.64L226.47 19.64Q226.47 19.28 226.08 19.11Q225.69 18.93 224.83 18.74L224.83 18.74Q223.88 18.53 223.24 18.30Q222.61 18.06 222.15 17.55Q221.70 17.03 221.70 16.16L221.70 16.16Q221.70 15.39 222.12 14.77Q222.53 14.15 223.37 13.79Q224.20 13.43 225.41 13.43L225.41 13.43Q226.24 13.43 227.04 13.62Q227.85 13.80 228.46 14.17L228.46 14.17L227.73 15.93Q226.53 15.28 225.40 15.28L225.40 15.28Q224.69 15.28 224.37 15.49Q224.05 15.70 224.05 16.04L224.05 16.04Q224.05 16.37 224.43 16.54Q224.81 16.71 225.66 16.89L225.66 16.89Q226.62 17.10 227.25 17.33Q227.88 17.56 228.35 18.07Q228.81 18.58 228.81 19.46L228.81 19.46Q228.81 20.21 228.39 20.83Q227.97 21.44 227.13 21.80Q226.29 22.17 225.09 22.17L225.09 22.17Q224.07 22.17 223.11 21.92Q222.15 21.67 221.55 21.24Z" fill="#FFFFFF" x="107.06"/></svg>